<svg xmlns="http://www.w3.org/2000/svg" xmlns:xlink="http://www.w3.org/1999/xlink" viewBox="0,0,256,256" width="50px" height="50px" fill-rule="nonzero"><g fill="none" fill-rule="nonzero" stroke="none" stroke-width="1" stroke-linecap="butt" stroke-linejoin="miter" stroke-miterlimit="10" stroke-dasharray="" stroke-dashoffset="0" font-family="none" font-weight="none" font-size="none" text-anchor="none" style="mix-blend-mode: normal"><g transform="scale(3.2,3.2)"><path d="M40,77.5c-20.676,0 -37.5,-16.824 -37.5,-37.5c0,-20.676 16.824,-37.5 37.5,-37.5c20.676,0 37.5,16.824 37.5,37.5c0,20.676 -16.824,37.5 -37.5,37.5z" fill="#000000"></path><path d="M40,3c20.402,0 37,16.598 37,37c0,20.402 -16.598,37 -37,37c-20.402,0 -37,-16.598 -37,-37c0,-20.402 16.598,-37 37,-37M40,2c-21,0 -38,17 -38,38c0,21 17,38 38,38c21,0 38,-17 38,-38c0,-21 -17,-38 -38,-38z" fill="#000000"></path><path d="M64,16l-16.7,13.46c-1.94,-1.1 -4.06,-1.86 -6.28,-2.22l11.48,-15.24z" fill="#fefdfd"></path><path d="M48.9,12.02l-9.36,15.04c-0.52,-0.04 -1.02,-0.06 -1.54,-0.06c-1.7,0 -3.34,0.22 -4.9,0.64l4.9,-15.64zM34.24,13.24l-2.68,14.88c-1.98,0.7 -3.8,1.74 -5.4,3.02l-1.4,-14.14c0,0 9.16,-3.64 9.48,-3.76zM24.88,32.26c-1.3,1.24 -2.42,2.66 -3.34,4.22l-5.54,-10.48l6,-6zM20.84,37.8c-0.64,1.38 -1.14,2.84 -1.46,4.38l-7.38,-5.9l2.98,-6.68z" fill="#fefcfc"></path><path d="M19.14,48.32l-7.14,-2.9l0.5,-5.94l6.58,4.74c-0.06,0.58 -0.08,1.18 -0.08,1.78c0,0.78 0.04,1.56 0.14,2.32z" fill="#fefbfb"></path><path d="M20.26,52.78l-5.88,0.14l-1.62,-4.92l6.62,1.72c0.2,1.04 0.5,2.06 0.88,3.06z" fill="#fefcfc"></path><path d="M22.28,56.64c-1.06,0.46 -2.7,1.14 -3.8,1.58c-1.14,-1.4 -2.08,-2.54 -2.84,-3.46c1.36,-0.18 3.46,-0.48 5.14,-0.72c0.42,0.9 0.92,1.78 1.5,2.6z" fill="#fdfafa"></path><path d="M35.091,50.816l-1.852,-4.441l19.143,-12.761c-3.621,-4.202 -8.854,-6.614 -14.382,-6.614c-10.477,0 -19,8.523 -19,19c0,5.665 2.502,10.968 6.86,14.596c0.433,-0.868 0.773,-1.563 0.955,-1.962c1.476,-1.083 3.811,-1.634 6.945,-1.634c1.305,0 2.893,0.188 4.727,0.557l1.252,0.314l-3.45,-7.36z" fill="#fefdfd"></path><path d="M38,26c-11.046,0 -20,8.954 -20,20c0,6.266 2.885,11.856 7.396,15.523c0.355,-0.706 0.668,-1.334 0.922,-1.852c-3.987,-3.395 -6.318,-8.324 -6.318,-13.671c0,-9.925 8.075,-18 18,-18c5.232,0 10.154,2.275 13.553,6.167l1.673,-1.115c-3.669,-4.31 -9.123,-7.052 -15.226,-7.052z" fill="#000000"></path><path d="M24,45c0,-7.732 6.268,-14 14,-14l-1,-1c-8.358,0.518 -15,7.513 -15,16c0,3.707 1.273,7.179 3.505,9.967c0.732,-0.47 1.6,-0.831 2.534,-1.136c-2.496,-2.528 -4.039,-5.998 -4.039,-9.831z" fill="#000000"></path><path d="M39.18,56.68c-0.84,-0.18 -3.22,-0.68 -5.42,-0.68c-2.991,0 -4.996,0.493 -6.355,1.133c-0.819,0.386 -1.469,1.041 -1.866,1.855c-1.028,2.108 -3.357,6.651 -3.52,6.992c0.221,-0.1 4.101,-1.98 7.981,-1.98c6,0 10,2 10,2c0,0 1.26,-2.64 1.82,-3.68z" fill="#ffffff"></path><path d="M31.75,58c1.75,0 3.25,0.5 4.25,1.25c-2.75,-0.25 -4.133,-0.031 -5.5,0.25c-2.881,0.592 -3.845,1.75 -3.845,1.75c0.052,-0.103 1.095,-2.25 1.095,-2.25c0,0 1.5,-1 4,-1z" fill="#000000"></path><path d="M45.56,54.9c-1.56,-0.78 -3.02,-1.92 -4.32,-3.4c-1.4,-1.58 -3.34,-2.5 -5.36,-2.5h-0.3l10.2,21.76c1.68,-0.62 5.56,-2.26 7.12,-4.84c-1.14,-2.9 -4.24,-9.48 -7.34,-11.02z" fill="#fefdfd"></path><path d="M37.221,50.159c1.232,0.295 2.381,0.99 3.276,2.005c1.38,1.566 2.931,2.786 4.609,3.625c2.429,1.215 5.217,6.446 6.671,10.015c-1.241,1.661 -3.687,2.952 -5.489,3.697l-9.067,-19.342M35.884,48h-1.884l11.25,24c0,0 6.75,-2 8.75,-6c0,0 -3.658,-9.829 -8,-12c-1.692,-0.846 -3.027,-2.05 -4.003,-3.158c-1.559,-1.769 -3.755,-2.842 -6.113,-2.842z" fill="#000000"></path><path d="M33.239,46.375l1.852,4.441l21.808,-5.566l-1.69,-13.52z" fill="#ffffff"></path><path d="M54.417,33.459l1.38,11.039l-20.116,5.136l-1.201,-2.884l19.937,-13.291M56,30l-24,16l2.5,6l23.5,-6l-2,-16z" fill="#000000"></path></g></g></svg>